<svg id="wave" style="transform:rotate(180deg); transition: 0.3s" viewBox="0 0 1440 469" version="1.1" xmlns="http://www.w3.org/2000/svg">
    <defs>
        <linearGradient id="sw-gradient-0" x1="0" x2="0" y1="1" y2="0">
            <stop stop-color="rgba(3, 3, 3, 1)" offset="0%"></stop>
            <stop stop-color="rgba(3, 3, 3, 1)" offset="100%"></stop>
        </linearGradient>
    </defs>
    <path style="transform:translate(0, 0px); opacity:1" fill="url(#sw-gradient-0)" d="M0,141L120,156.7C240,172,480,204,720,180.2C960,157,1200,78,1440,94C1680,110,1920,219,2160,289.8C2400,360,2640,392,2880,352.5C3120,313,3360,204,3600,195.8C3840,188,4080,282,4320,305.5C4560,329,4800,282,5040,282C5280,282,5520,329,5760,297.7C6000,266,6240,157,6480,156.7C6720,157,6960,266,7200,258.5C7440,251,7680,125,7920,101.8C8160,78,8400,157,8640,156.7C8880,157,9120,78,9360,54.8C9600,31,9840,63,10080,109.7C10320,157,10560,219,10800,250.7C11040,282,11280,282,11520,289.8C11760,298,12000,313,12240,305.5C12480,298,12720,266,12960,250.7C13200,235,13440,235,13680,211.5C13920,188,14160,141,14400,109.7C14640,78,14880,63,15120,70.5C15360,78,15600,110,15840,148.8C16080,188,16320,235,16560,266.3C16800,298,17040,313,17160,321.2L17280,329L17280,470L17160,470C17040,470,16800,470,16560,470C16320,470,16080,470,15840,470C15600,470,15360,470,15120,470C14880,470,14640,470,14400,470C14160,470,13920,470,13680,470C13440,470,13200,470,12960,470C12720,470,12480,470,12240,470C12000,470,11760,470,11520,470C11280,470,11040,470,10800,470C10560,470,10320,470,10080,470C9840,470,9600,470,9360,470C9120,470,8880,470,8640,470C8400,470,8160,470,7920,470C7680,470,7440,470,7200,470C6960,470,6720,470,6480,470C6240,470,6000,470,5760,470C5520,470,5280,470,5040,470C4800,470,4560,470,4320,470C4080,470,3840,470,3600,470C3360,470,3120,470,2880,470C2640,470,2400,470,2160,470C1920,470,1680,470,1440,470C1200,470,960,470,720,470C480,470,240,470,120,470L0,470Z"></path>
</svg>